<svg width="64" height="100" viewBox="0 0 64 100" fill="none" xmlns="http://www.w3.org/2000/svg">
<path d="M64 66.8545C64 70.6574 62.8981 74.2321 60.6942 77.5787C58.5785 80.9252 55.405 83.7393 51.1736 86.021C47.0303 88.3028 42.0937 89.6718 36.3636 90.1281V99.3691H27.7686V90.1281C19.4821 89.4436 12.7824 87.1999 7.66942 83.3971C2.55647 79.5942 0 74.5744 0 68.3377H16.1322C16.3967 71.3039 17.4986 73.7758 19.438 75.7533C21.3774 77.6547 24.1543 78.8716 27.7686 79.404V54.3051C21.8623 53.0121 17.0579 51.7191 13.3554 50.4261C9.65289 49.0571 6.47934 46.9275 3.83471 44.0373C1.27824 41.1471 0 37.1921 0 32.1723C0 25.8596 2.55647 20.6496 7.66942 16.5425C12.7824 12.3593 19.4821 9.92551 27.7686 9.24099V0H36.3636V9.24099C44.1212 9.84945 50.3361 11.9791 55.0083 15.6298C59.7686 19.2045 62.4573 24.1483 63.0744 30.461H46.9421C46.6777 28.1032 45.6198 26.0117 43.7686 24.1863C41.9174 22.2849 39.449 20.9919 36.3636 20.3074V44.95C42.27 46.1669 47.0744 47.4599 50.7769 48.8289C54.4793 50.1219 57.6088 52.2135 60.1653 55.1037C62.7218 57.9178 64 61.8348 64 66.8545ZM15.3388 31.4878C15.3388 34.6062 16.3967 37.04 18.5124 38.7893C20.7163 40.5387 23.8017 41.9457 27.7686 43.0105V19.9651C23.978 20.3454 20.9366 21.5243 18.6446 23.5018C16.4408 25.4793 15.3388 28.1413 15.3388 31.4878ZM36.3636 79.404C40.2424 78.8716 43.2837 77.5406 45.4876 75.411C47.6915 73.2053 48.7934 70.5814 48.7934 67.5391C48.7934 64.4968 47.6915 62.139 45.4876 60.4657C43.3719 58.7164 40.3306 57.3093 36.3636 56.2445V79.404Z" fill="#49AA26"/>
</svg>
